<mxfile host="app.diagrams.net" modified="2020-11-02T20:06:15.386Z" agent="5.0 (X11)" etag="09cf_BdAesWlIjw2sl4T" version="13.8.8" type="github">
  <diagram id="xio25yVfDnFVx_sVhXzI" name="Page-1">
    <mxGraphModel dx="931" dy="547" grid="1" gridSize="10" guides="1" tooltips="1" connect="1" arrows="1" fold="1" page="1" pageScale="1" pageWidth="640" pageHeight="490" math="0" shadow="0">
      <root>
        <mxCell id="0" />
        <mxCell id="1" parent="0" />
        <mxCell id="ImFhcV0FCuS-DpzPM58G-1" value="" style="ellipse;fillColor=#000000;strokeColor=none;" vertex="1" parent="1">
          <mxGeometry x="390" y="160" width="30" height="30" as="geometry" />
        </mxCell>
        <mxCell id="ImFhcV0FCuS-DpzPM58G-2" value="" style="ellipse;html=1;shape=endState;fillColor=#000000;strokeColor=#000000;" vertex="1" parent="1">
          <mxGeometry x="510" y="20" width="30" height="30" as="geometry" />
        </mxCell>
      </root>
    </mxGraphModel>
  </diagram>
</mxfile>
